<svg width="19" height="19" viewBox="0 0 19 19" fill="none" xmlns="http://www.w3.org/2000/svg">
<path d="M16.6754 4.27979L17.0067 7.92324C17.0557 8.46283 17.0804 8.7349 17.0355 8.99317C16.9954 9.22392 16.9153 9.44597 16.7984 9.64893C16.667 9.87695 16.4729 10.0711 16.0869 10.4571L10.9114 15.6326C10.1243 16.4197 9.7306 16.8134 9.27538 16.9613C8.8737 17.0918 8.4403 17.0921 8.03862 16.9616C7.58196 16.8132 7.18514 16.4169 6.39311 15.6248L2.43331 11.665C1.64128 10.873 1.24591 10.4772 1.09753 10.0205C0.967016 9.61882 0.967798 9.18591 1.09831 8.78423C1.24669 8.32757 1.64147 7.93181 2.4335 7.13978L7.59623 1.97705C7.9858 1.58749 8.18065 1.39268 8.40971 1.26075C8.61266 1.14384 8.83472 1.06337 9.06547 1.02325C9.3259 0.977962 9.60037 1.00286 10.149 1.05274L13.7788 1.38272C14.7236 1.46861 15.1963 1.51174 15.566 1.71731C15.8919 1.89855 16.1606 2.16724 16.3418 2.49317C16.5464 2.861 16.589 3.33032 16.6741 4.26568L16.6754 4.27979Z" stroke="#FFFFFF" stroke-width="2" stroke-linecap="round" stroke-linejoin="round"/>
<path d="M11.7108 6.34773C11.3202 5.95721 11.3202 5.32405 11.7108 4.93352C12.1013 4.543 12.7349 4.543 13.1254 4.93352C13.5159 5.32405 13.5163 5.95706 13.1258 6.34758C12.7353 6.73811 12.1013 6.73826 11.7108 6.34773Z" stroke="#FFFFFF" stroke-width="2" stroke-linecap="round" stroke-linejoin="round"/>
</svg>
