<svg width="28" height="22" viewBox="0 0 28 22" fill="none" xmlns="http://www.w3.org/2000/svg">
<path d="M0.47998 21.0216H3.14665M3.14665 21.0216H16.48M3.14665 21.0216V4.34688C3.14665 2.99342 3.14665 2.31619 3.4373 1.79923C3.69296 1.34451 4.10061 0.975075 4.60238 0.743381C5.17281 0.47998 5.9201 0.47998 7.41357 0.47998H12.2136C13.707 0.47998 14.4527 0.47998 15.0232 0.743381C15.5249 0.975075 15.934 1.34451 16.1896 1.79923C16.48 2.31568 16.48 2.9921 16.48 4.34291V11.355M16.48 21.0216H24.48M16.48 21.0216V11.355M24.48 21.0216H27.1466M24.48 21.0216V11.355C24.48 10.229 24.4798 9.66622 24.2769 9.22211C24.0062 8.62996 23.4876 8.15921 22.8341 7.91394C22.3441 7.72998 21.7221 7.72998 20.4796 7.72998C19.2371 7.72998 18.6159 7.72998 18.1258 7.91394C17.4724 8.15921 16.9536 8.62996 16.683 9.22211C16.48 9.66622 16.48 10.229 16.48 11.355M7.14665 8.93831H12.48M7.14665 5.31331H12.48" stroke="#FFFFFF" stroke-width="0.96" stroke-linecap="round" stroke-linejoin="round"/>
</svg>
