<svg width="60" height="54" viewBox="0 0 60 54" fill="none" xmlns="http://www.w3.org/2000/svg">
<path d="M29.7715 18.0002V30.0002M6.9082 36.5996C4.1799 41.3251 2.81614 43.6888 3.01992 45.6276C3.19767 47.3188 4.08524 48.8552 5.46094 49.8547C7.03759 51.0002 9.7642 51.0002 15.2171 51.0002H44.3259C49.7788 51.0002 52.505 51.0002 54.0816 49.8547C55.4573 48.8552 56.3453 47.3188 56.523 45.6276C56.7268 43.6888 55.3635 41.3251 52.6352 36.5996L38.0859 11.3996C35.3576 6.67404 33.9929 4.31167 32.2119 3.51873C30.6585 2.82709 28.8835 2.82709 27.3301 3.51873C25.5498 4.31134 24.1859 6.67373 21.4599 11.3953L6.9082 36.5996ZM29.9238 39.0002V39.3002L29.6221 39.3008V39.0002H29.9238Z" stroke="#FFFFFF" stroke-width="6" stroke-linecap="round" stroke-linejoin="round"/>
</svg>
