<svg width="20" height="19" viewBox="0 0 20 19" fill="none" xmlns="http://www.w3.org/2000/svg">
<path d="M0.75 17.7502H7.69328M7.69328 17.7502H7.80672M7.69328 17.7502C7.71217 17.7504 7.73107 17.7505 7.75 17.7505C7.76893 17.7505 7.78783 17.7504 7.80672 17.7502M7.69328 17.7502C3.8534 17.7198 0.75 14.5971 0.75 10.75V6.6731C0.75 6.16329 1.16305 5.75024 1.67285 5.75024H13.8267C14.3365 5.75024 14.75 6.16329 14.75 6.6731V6.75024M7.80672 17.7502H14.75M7.80672 17.7502C11.6466 17.7198 14.75 14.5971 14.75 10.75M14.75 6.75024H16.25C17.6307 6.75024 18.75 7.86953 18.75 9.25024C18.75 10.631 17.6307 11.7502 16.25 11.7502H14.75V10.75M14.75 6.75024V10.75M11.75 0.750244L10.75 2.75024M8.75 0.750244L7.75 2.75024M5.75 0.750244L4.75 2.75024" stroke="#FFFFFF" stroke-width="1.5" stroke-linecap="round" stroke-linejoin="round"/>
</svg>
