<svg width="25" height="28" viewBox="0 0 25 28" fill="none" xmlns="http://www.w3.org/2000/svg">
<path d="M17.845 0.844971V6.51164M6.51164 0.844971V6.51164M0.844971 12.1783H23.5116M0.844971 6.51164C0.844971 5.76019 1.14348 5.03952 1.67483 4.50817C2.20619 3.97681 2.92686 3.6783 3.6783 3.6783H20.6783C21.4298 3.6783 22.1504 3.97681 22.6818 4.50817C23.2131 5.03952 23.5116 5.76019 23.5116 6.51164V23.5116C23.5116 24.2631 23.2131 24.9838 22.6818 25.5151C22.1504 26.0465 21.4298 26.345 20.6783 26.345H3.6783C2.92686 26.345 2.20619 26.0465 1.67483 25.5151C1.14348 24.9838 0.844971 24.2631 0.844971 23.5116V6.51164ZM10.7616 19.2616C10.7616 19.6374 10.9109 19.9977 11.1766 20.2634C11.4422 20.529 11.8026 20.6783 12.1783 20.6783C12.554 20.6783 12.9144 20.529 13.18 20.2634C13.4457 19.9977 13.595 19.6374 13.595 19.2616C13.595 18.8859 13.4457 18.5256 13.18 18.2599C12.9144 17.9942 12.554 17.845 12.1783 17.845C11.8026 17.845 11.4422 17.9942 11.1766 18.2599C10.9109 18.5256 10.7616 18.8859 10.7616 19.2616Z" stroke="#5E6366" stroke-width="1.69" stroke-linecap="round" stroke-linejoin="round"/>
</svg>
