<svg width="20" height="20" viewBox="0 0 20 20" fill="none" xmlns="http://www.w3.org/2000/svg">
<path d="M1 7H18.4545M1 7V15.8002C1 16.9203 1 17.4801 1.2378 17.9079C1.44698 18.2842 1.78052 18.5905 2.19105 18.7822C2.65731 19 3.26799 19 4.48754 19H14.967C16.1866 19 16.7964 19 17.2626 18.7822C17.6731 18.5905 18.0078 18.2842 18.217 17.9079C18.4545 17.4805 18.4545 16.9215 18.4545 15.8036V7M1 7V6.2002C1 5.08009 1 4.51962 1.2378 4.0918C1.44698 3.71547 1.78052 3.40973 2.19105 3.21799C2.65777 3 3.26919 3 4.49112 3H5.36364M18.4545 7V6.19691C18.4545 5.07899 18.4545 4.5192 18.217 4.0918C18.0078 3.71547 17.6731 3.40973 17.2626 3.21799C16.7959 3 16.1858 3 14.9639 3H14.0909M5.36364 3H14.0909M5.36364 3V1M14.0909 3V1M13 11L8.63636 15L6.45455 13" stroke="#FFFFFF" stroke-width="2" stroke-linecap="round" stroke-linejoin="round"/>
</svg>
