<svg width="25" height="20" viewBox="0 0 25 20" fill="none" xmlns="http://www.w3.org/2000/svg">
<path d="M0.47998 18.8651H2.81331M2.81331 18.8651H9.81331M2.81331 18.8651V9.2488C2.81331 8.64767 2.81331 8.34695 2.88911 8.06722C2.95629 7.81934 3.0674 7.58476 3.21663 7.37277C3.38503 7.13357 3.61906 6.93521 4.08822 6.53936L9.69007 1.8128C10.5598 1.07896 10.9947 0.712017 11.4845 0.57235C11.9164 0.44919 12.3767 0.44919 12.8086 0.57235C13.2987 0.712123 13.7343 1.07941 14.6053 1.81435L20.2053 6.53936C20.6744 6.93519 20.9086 7.13357 21.077 7.37277C21.2262 7.58475 21.3365 7.81934 21.4036 8.06722C21.4794 8.34695 21.48 8.64767 21.48 9.2488V18.8651M9.81331 18.8651H14.48M9.81331 18.8651V14.3651C9.81331 13.1225 10.858 12.1151 12.1466 12.1151C13.4353 12.1151 14.48 13.1225 14.48 14.3651V18.8651M14.48 18.8651H21.48M21.48 18.8651H23.8133" stroke="#FFFFFF" stroke-width="0.96" stroke-linecap="round" stroke-linejoin="round"/>
</svg>
