<svg width="22" height="22" viewBox="0 0 22 22" fill="none" xmlns="http://www.w3.org/2000/svg">
<path d="M16.1424 8.43115V19.4472C16.1407 19.9336 15.9145 20.3998 15.5131 20.7438C15.1118 21.0878 14.568 21.2817 14.0004 21.2832H4.57559C4.00802 21.2817 3.46418 21.0878 3.06284 20.7438C2.66151 20.3998 2.43529 19.9336 2.43359 19.4472V9.53275" stroke="#242424" stroke-width="1.44" stroke-linecap="round" stroke-linejoin="round"/>
<path d="M16.1426 9.53271H18.2846C19.0792 9.53465 19.8407 9.80608 20.4026 10.2877C20.9644 10.7693 21.2811 11.422 21.2834 12.1031V15.7751C21.2811 16.4562 20.9644 17.1089 20.4026 17.5905C19.8407 18.0721 19.0792 18.3436 18.2846 18.3455H16.1426" stroke="#242424" stroke-width="1.44" stroke-miterlimit="10" stroke-linecap="round"/>
<path d="M9.28809 11.0015V18.3455" stroke="#242424" stroke-width="1.44" stroke-linecap="round" stroke-linejoin="round"/>
<path d="M12.7153 11.0015V18.3455" stroke="#242424" stroke-width="1.44" stroke-linecap="round" stroke-linejoin="round"/>
<path d="M5.86084 11.0015V18.3455" stroke="#242424" stroke-width="1.44" stroke-linecap="round" stroke-linejoin="round"/>
<path d="M14.429 4.39185C15.1107 4.39185 15.7645 4.62397 16.2466 5.03715C16.7286 5.45033 16.9994 6.01072 16.9994 6.59505C16.9994 7.17937 16.7286 7.73976 16.2466 8.15294C15.7645 8.56612 15.1107 8.79825 14.429 8.79825C13.7195 8.79825 12.8595 8.46272 12.3941 8.06385H5.86101C5.43261 9.07365 4.41516 9.53265 3.29061 9.53265C2.6089 9.53265 1.95511 9.30052 1.47307 8.88734C0.991024 8.47416 0.720215 7.91377 0.720215 7.32945C0.720215 6.74512 0.991024 6.18473 1.47307 5.77155C1.95511 5.35837 2.6089 5.12625 3.29061 5.12625C3.79185 5.1443 4.27592 5.28793 4.68291 5.53935" stroke="#242424" stroke-width="1.44" stroke-linecap="round" stroke-linejoin="round"/>
<path d="M2.21205 5.32995C2.00202 5.15158 1.83734 4.93787 1.72838 4.70228C1.61943 4.46669 1.56855 4.21431 1.57897 3.96104C1.58938 3.70777 1.66085 3.45908 1.78888 3.23065C1.91692 3.00221 2.09874 2.79897 2.3229 2.63372C2.54706 2.46847 2.80871 2.34478 3.09137 2.27045C3.37403 2.19612 3.67159 2.17275 3.9653 2.20181C4.25902 2.23088 4.54253 2.31175 4.798 2.43934C5.05346 2.56692 5.27535 2.73846 5.44968 2.94315C5.44968 2.94315 5.86094 3.42831 5.86094 3.65781" stroke="#242424" stroke-width="1.44" stroke-miterlimit="10" stroke-linecap="round"/>
<path d="M5.10254 2.22136C6.03377 1.31162 7.33772 0.719971 8.86014 0.719971C11.6651 0.719971 13.8938 2.68633 13.8938 5.09011C13.894 5.3641 13.8641 5.6375 13.8044 5.90667" stroke="#242424" stroke-width="1.44" stroke-miterlimit="10" stroke-linecap="round"/>
</svg>
