<svg width="31" height="31" viewBox="0 0 31 31" fill="none" xmlns="http://www.w3.org/2000/svg">
<path d="M7.72192 18.3394C9.3212 18.3394 10.6177 17.0429 10.6177 15.4436C10.6177 13.8443 9.3212 12.5479 7.72192 12.5479C6.12264 12.5479 4.82617 13.8443 4.82617 15.4436C4.82617 17.0429 6.12264 18.3394 7.72192 18.3394Z" stroke="#242424" stroke-width="1.56" stroke-linecap="round" stroke-linejoin="round"/>
<path d="M23.1663 9.65234C24.7655 9.65234 26.062 8.35587 26.062 6.75659C26.062 5.15731 24.7655 3.86084 23.1663 3.86084C21.567 3.86084 20.2705 5.15731 20.2705 6.75659C20.2705 8.35587 21.567 9.65234 23.1663 9.65234Z" stroke="#242424" stroke-width="1.56" stroke-linecap="round" stroke-linejoin="round"/>
<path d="M23.1663 27.0269C24.7655 27.0269 26.062 25.7304 26.062 24.1311C26.062 22.5318 24.7655 21.2354 23.1663 21.2354C21.567 21.2354 20.2705 22.5318 20.2705 24.1311C20.2705 25.7304 21.567 27.0269 23.1663 27.0269Z" stroke="#242424" stroke-width="1.56" stroke-linecap="round" stroke-linejoin="round"/>
<path d="M10.2456 16.8643L20.6426 22.7125" stroke="#242424" stroke-width="1.56" stroke-linecap="round" stroke-linejoin="round"/>
<path d="M20.6426 8.17676L10.2456 14.025" stroke="#242424" stroke-width="1.56" stroke-linecap="round" stroke-linejoin="round"/>
</svg>
