<svg width="34" height="37" viewBox="0 0 34 37" fill="none" xmlns="http://www.w3.org/2000/svg">
<path d="M21.1667 28.5V30.3333C21.1667 33.3709 18.7042 35.8333 15.6667 35.8333C12.6291 35.8333 10.1667 33.3709 10.1667 30.3333V28.5002M21.1667 28.5L10.1667 28.5002M21.1667 28.5H28.5C29.5125 28.5 30.3333 27.6792 30.3333 26.6667V25.5924C30.3333 25.1062 30.14 24.6402 29.7962 24.2962L28.8599 23.3599C28.6294 23.1294 28.5 22.8166 28.5 22.4906V15.6667C28.5 15.3432 28.4883 15.0223 28.4642 14.7062M10.1667 28.5002L2.83333 28.5002C1.82082 28.5002 1 27.6788 1 26.6663V25.5925C1 25.1063 1.1933 24.6407 1.53711 24.2967L2.47347 23.359C2.70388 23.1286 2.83333 22.8171 2.83333 22.4911V15.6666C2.83333 8.57902 8.579 2.83333 15.6667 2.83333C16.9713 2.83333 18.2304 3.028 19.4166 3.38988M28.4642 14.7062C30.6759 13.4434 32.1667 11.0625 32.1667 8.33333C32.1667 4.28324 28.8834 1 24.8333 1C22.6879 1 20.7576 1.92131 19.4166 3.38988M28.4642 14.7062C27.3937 15.3174 26.1543 15.6667 24.8333 15.6667C20.7832 15.6667 17.5 12.3834 17.5 8.33333C17.5 6.42868 18.2261 4.69362 19.4166 3.38988M28.4642 14.7062C28.4642 14.7062 28.4642 14.7062 28.4642 14.7062ZM19.4166 3.38988C19.4175 3.39014 19.4183 3.3904 19.4192 3.39066" stroke="#FFFFFF" stroke-width="2" stroke-linecap="round" stroke-linejoin="round"/>
<path d="M25 1.4502C29.249 1.4502 32.5498 4.68336 32.5498 8.5C32.5498 12.3166 29.249 15.5498 25 15.5498C20.751 15.5498 17.4502 12.3166 17.4502 8.5C17.4502 4.68336 20.751 1.4502 25 1.4502Z" stroke="#A6E246" stroke-width="2.9"/>
</svg>
