<svg width="30" height="28" viewBox="0 0 30 28" fill="none" xmlns="http://www.w3.org/2000/svg">
<path d="M25.26 0.959961H4.73996C3.73832 0.962811 2.77852 1.36197 2.07025 2.07025C1.36197 2.77852 0.962811 3.73832 0.959961 4.73996V17.7C0.962811 18.7016 1.36197 19.6614 2.07025 20.3697C2.77852 21.0779 3.73832 21.4771 4.73996 21.48H7.43996V26.88L13.7661 21.6055C13.8632 21.5244 13.9858 21.4799 14.1123 21.48H25.26C26.2616 21.4771 27.2214 21.0779 27.9297 20.3697C28.6379 19.6614 29.0371 18.7016 29.04 17.7V4.73996C29.0371 3.73832 28.6379 2.77852 27.9297 2.07025C27.2214 1.36197 26.2616 0.962811 25.26 0.959961V0.959961Z" stroke="#242424" stroke-width="1.92" stroke-linejoin="round"/>
</svg>
