<svg width="28" height="28" viewBox="0 0 28 28" fill="none" xmlns="http://www.w3.org/2000/svg">
<path d="M9.4528 17.6928L5.20393 12.7657C3.02391 10.2376 1.9339 8.97359 2.41747 7.94285C2.90105 6.91211 4.58409 6.91211 7.95014 6.91211H12.7862C16.1523 6.91211 17.8353 6.91211 18.319 7.94285C18.8025 8.97359 17.7125 10.2376 15.5325 12.7657L11.2836 17.6928C10.8585 18.1857 10.646 18.4321 10.3682 18.4321C10.0904 18.4321 9.87787 18.1857 9.4528 17.6928Z" stroke="#FFFFFF" stroke-width="1.44" stroke-linecap="round"/>
<path d="M9.79225 6.91171L9.33028 4.13987C9.26013 3.71897 8.96307 3.37132 8.55825 3.23638L5.76025 2.30371" stroke="#FFFFFF" stroke-width="1.44" stroke-linecap="round"/>
<path d="M10.3681 18.4321V25.3441M8.64014 25.3441H12.0961" stroke="#FFFFFF" stroke-width="1.44" stroke-linecap="round"/>
<path d="M18.2711 10.1758C19.0132 11.0007 20.0915 11.5198 21.2918 11.5198C23.5299 11.5198 25.3443 9.71463 25.3443 7.48781C25.3443 5.26099 23.5299 3.45581 21.2918 3.45581C19.2502 3.45581 17.5611 4.95785 17.2803 6.91181" stroke="#FFFFFF" stroke-width="1.44" stroke-linecap="round"/>
</svg>
