<svg width="25" height="25" viewBox="0 0 25 25" fill="none" xmlns="http://www.w3.org/2000/svg">
<path d="M0.815918 23.2598H23.8559M0.815918 23.2598V17.4998L12.3359 5.97983M0.815918 23.2598L6.57592 23.2598L18.0959 11.7398M12.3359 5.97983L16.4667 1.84897L16.4692 1.84652C17.0379 1.27789 17.3227 0.993075 17.651 0.886397C17.9402 0.792425 18.2518 0.792425 18.541 0.886397C18.8691 0.992999 19.1536 1.2775 19.7214 1.84532L22.2267 4.35063C22.797 4.92089 23.0822 5.20615 23.1891 5.53495C23.283 5.82416 23.283 6.1357 23.189 6.42491C23.0823 6.75347 22.7974 7.0383 22.228 7.60775L22.2267 7.60898L18.0959 11.7398M12.3359 5.97983L18.0959 11.7398" stroke="#242424" stroke-width="1.632" stroke-linecap="round" stroke-linejoin="round"/>
</svg>
