<svg width="36" height="37" viewBox="0 0 36 37" fill="none" xmlns="http://www.w3.org/2000/svg">
<path d="M1 17.2386V28.3801C1 30.7137 1 31.8813 1.45414 32.7726C1.85361 33.5566 2.49057 34.1934 3.27458 34.5929C4.165 35.0466 5.33124 35.0466 7.66023 35.0466H27.6731C30.0021 35.0466 31.1666 35.0466 32.0571 34.5929C32.8411 34.1934 33.4802 33.5566 33.8796 32.7726C34.3333 31.8821 34.3333 30.7164 34.3333 28.3874V17.2386C34.3333 16.1254 34.3324 15.5685 34.197 15.0504C34.0771 14.5914 33.8802 14.157 33.6137 13.7644C33.313 13.3215 32.8949 12.9541 32.0571 12.2211L22.0571 3.47106C20.5017 2.11005 19.724 1.42989 18.8487 1.17106C18.0775 0.942982 17.2554 0.942982 16.4842 1.17106C15.6096 1.4297 14.833 2.10921 13.2799 3.46817L3.27661 12.2211C2.43883 12.9541 2.02092 13.3215 1.72021 13.7644C1.45373 14.157 1.25531 14.5914 1.13536 15.0504C1 15.5685 1 16.1253 1 17.2386Z" stroke="#FFFFFF" stroke-width="2" stroke-linecap="round" stroke-linejoin="round"/>
</svg>
