<svg width="26" height="23" viewBox="0 0 26 23" fill="none" xmlns="http://www.w3.org/2000/svg">
<path d="M0.47998 21.8133H2.97998M2.97998 21.8133H16.73M2.97998 21.8133V14.3042C2.97998 13.6037 2.97998 13.2533 3.05873 12.9266C3.12852 12.637 3.2434 12.3624 3.39868 12.1135C3.5738 11.8329 3.8189 11.5979 4.30688 11.1302L7.18386 8.37327C8.12728 7.4692 8.59934 7.01683 9.13309 6.84521C9.60365 6.69392 10.1059 6.69392 10.5764 6.84521C11.1106 7.01698 11.5833 7.46958 12.5283 8.37516L15.4033 11.1302C15.8918 11.5984 16.1356 11.8327 16.3108 12.1135C16.4661 12.3624 16.5808 12.637 16.6506 12.9266C16.7294 13.2533 16.73 13.6037 16.73 14.3042V21.8133M16.73 21.8133H22.98M22.98 21.8133H25.48M22.98 21.8133V4.74253C22.98 3.25197 22.98 2.50558 22.7078 1.93571C22.4681 1.43394 22.0846 1.02629 21.6142 0.77063C21.0794 0.47998 20.3804 0.47998 18.9802 0.47998H10.7302C9.33009 0.47998 8.62951 0.47998 8.09473 0.77063C7.62432 1.02629 7.24215 1.43394 7.00246 1.93571C6.72998 2.50614 6.72998 3.25343 6.72998 4.74691V8.48024" stroke="#FFFFFF" stroke-width="0.96" stroke-linecap="round" stroke-linejoin="round"/>
</svg>
