<svg width="30" height="29" viewBox="0 0 30 29" fill="none" xmlns="http://www.w3.org/2000/svg">
<path d="M10.3125 23.5625V27.1875" stroke="#242424" stroke-linecap="round" stroke-linejoin="round"/>
<path d="M4.6875 1.8125H15.9375C16.4348 1.8125 16.9117 2.00346 17.2633 2.34337C17.615 2.68328 17.8125 3.1443 17.8125 3.625V26.9609C17.8125 27.021 17.7878 27.0787 17.7439 27.1211C17.6999 27.1636 17.6403 27.1875 17.5781 27.1875H2.8125V3.625C2.8125 3.1443 3.01004 2.68328 3.36167 2.34337C3.71331 2.00346 4.19022 1.8125 4.6875 1.8125V1.8125Z" stroke="#242424" stroke-linecap="round" stroke-linejoin="round"/>
<path d="M18.75 10.875H25.3125C25.8098 10.875 26.2867 11.066 26.6383 11.4059C26.99 11.7458 27.1875 12.2068 27.1875 12.6875V27.1875H17.8125V11.7812C17.8125 11.5409 17.9113 11.3104 18.0871 11.1404C18.2629 10.9705 18.5014 10.875 18.75 10.875Z" stroke="#242424" stroke-linecap="round" stroke-linejoin="round"/>
<path d="M5.74707 24.4616C5.5529 24.4861 5.35566 24.4513 5.18303 24.362C5.01039 24.2726 4.87103 24.1333 4.78449 23.9635C4.69796 23.7937 4.6686 23.6019 4.70054 23.4152C4.73248 23.2284 4.82411 23.056 4.96258 22.9222C5.10104 22.7883 5.27939 22.6997 5.47258 22.6689C5.66577 22.638 5.86412 22.6664 6.03978 22.75C6.21544 22.8337 6.35959 22.9684 6.45201 23.1353C6.54443 23.3022 6.58047 23.4928 6.55508 23.6805C6.52828 23.8786 6.43453 24.0626 6.28841 24.2038C6.14228 24.3451 5.95197 24.4357 5.74707 24.4616Z" fill="#242424"/>
<path d="M5.74707 19.9303C5.5529 19.9549 5.35566 19.92 5.18303 19.8307C5.01039 19.7414 4.87103 19.602 4.78449 19.4322C4.69796 19.2624 4.6686 19.0707 4.70054 18.8839C4.73248 18.6972 4.82411 18.5248 4.96258 18.3909C5.10104 18.2571 5.27939 18.1685 5.47258 18.1376C5.66577 18.1068 5.86412 18.1351 6.03978 18.2188C6.21544 18.3024 6.35959 18.4371 6.45201 18.604C6.54443 18.7709 6.58047 18.9616 6.55508 19.1493C6.52828 19.3473 6.43453 19.5313 6.28841 19.6726C6.14228 19.8138 5.95197 19.9044 5.74707 19.9303Z" fill="#242424"/>
<path d="M5.74707 15.3991C5.5529 15.4236 5.35566 15.3888 5.18303 15.2994C5.01039 15.2101 4.87103 15.0708 4.78449 14.901C4.69796 14.7312 4.6686 14.5394 4.70054 14.3527C4.73248 14.1659 4.82411 13.9935 4.96258 13.8597C5.10104 13.7258 5.27939 13.6372 5.47258 13.6064C5.66577 13.5755 5.86412 13.6039 6.03978 13.6875C6.21544 13.7712 6.35959 13.9059 6.45201 14.0728C6.54443 14.2397 6.58047 14.4303 6.55508 14.618C6.52828 14.8161 6.43453 15 6.28841 15.1413C6.14228 15.2825 5.95197 15.3732 5.74707 15.3991Z" fill="#242424"/>
<path d="M5.74707 10.8678C5.5529 10.8924 5.35566 10.8575 5.18303 10.7682C5.01039 10.6789 4.87103 10.5395 4.78449 10.3697C4.69796 10.1999 4.6686 10.0082 4.70054 9.82142C4.73248 9.63467 4.82411 9.46227 4.96258 9.32842C5.10104 9.19458 5.27939 9.106 5.47258 9.07513C5.66577 9.04425 5.86412 9.07263 6.03978 9.15628C6.21544 9.23992 6.35959 9.37464 6.45201 9.54152C6.54443 9.7084 6.58047 9.89907 6.55508 10.0868C6.52828 10.2848 6.43453 10.4688 6.28841 10.61C6.14228 10.7513 5.95197 10.8419 5.74707 10.8678Z" fill="#242424"/>
<path d="M5.74707 6.33659C5.5529 6.36114 5.35566 6.3263 5.18303 6.23696C5.01039 6.14762 4.87103 6.00827 4.78449 5.83847C4.69796 5.66867 4.6686 5.47693 4.70054 5.29018C4.73248 5.10342 4.82411 4.93102 4.96258 4.79717C5.10104 4.66333 5.27939 4.57475 5.47258 4.54388C5.66577 4.513 5.86412 4.54138 6.03978 4.62503C6.21544 4.70868 6.35959 4.84339 6.45201 5.01028C6.54443 5.17716 6.58047 5.36782 6.55508 5.55552C6.52828 5.75359 6.43453 5.93756 6.28841 6.07881C6.14228 6.22006 5.95197 6.31069 5.74707 6.33659Z" fill="#242424"/>
<path d="M10.4346 19.9303C10.2404 19.9549 10.0432 19.92 9.87052 19.8307C9.69789 19.7414 9.55853 19.602 9.47199 19.4322C9.38546 19.2624 9.3561 19.0707 9.38804 18.8839C9.41998 18.6972 9.51161 18.5248 9.65008 18.3909C9.78854 18.2571 9.96688 18.1685 10.1601 18.1376C10.3533 18.1068 10.5516 18.1351 10.7273 18.2188C10.9029 18.3024 11.0471 18.4371 11.1395 18.604C11.2319 18.7709 11.268 18.9616 11.2426 19.1493C11.2158 19.3473 11.122 19.5313 10.9759 19.6726C10.8298 19.8138 10.6395 19.9044 10.4346 19.9303Z" fill="#242424"/>
<path d="M10.4346 15.3991C10.2404 15.4236 10.0432 15.3888 9.87052 15.2994C9.69789 15.2101 9.55853 15.0708 9.47199 14.901C9.38546 14.7312 9.3561 14.5394 9.38804 14.3527C9.41998 14.1659 9.51161 13.9935 9.65008 13.8597C9.78854 13.7258 9.96688 13.6372 10.1601 13.6064C10.3533 13.5755 10.5516 13.6039 10.7273 13.6875C10.9029 13.7712 11.0471 13.9059 11.1395 14.0728C11.2319 14.2397 11.268 14.4303 11.2426 14.618C11.2158 14.8161 11.122 15 10.9759 15.1413C10.8298 15.2825 10.6395 15.3732 10.4346 15.3991Z" fill="#242424"/>
<path d="M10.4346 10.8678C10.2404 10.8924 10.0432 10.8575 9.87052 10.7682C9.69789 10.6789 9.55853 10.5395 9.47199 10.3697C9.38546 10.1999 9.3561 10.0082 9.38804 9.82142C9.41998 9.63467 9.51161 9.46227 9.65008 9.32842C9.78854 9.19458 9.96688 9.106 10.1601 9.07513C10.3533 9.04425 10.5516 9.07263 10.7273 9.15628C10.9029 9.23992 11.0471 9.37464 11.1395 9.54152C11.2319 9.7084 11.268 9.89907 11.2426 10.0868C11.2158 10.2848 11.122 10.4688 10.9759 10.61C10.8298 10.7513 10.6395 10.8419 10.4346 10.8678Z" fill="#242424"/>
<path d="M10.4346 6.33659C10.2404 6.36114 10.0432 6.3263 9.87052 6.23696C9.69789 6.14762 9.55853 6.00827 9.47199 5.83847C9.38546 5.66867 9.3561 5.47693 9.38804 5.29018C9.41998 5.10342 9.51161 4.93102 9.65008 4.79717C9.78854 4.66333 9.96688 4.57475 10.1601 4.54388C10.3533 4.513 10.5516 4.54138 10.7273 4.62503C10.9029 4.70868 11.0471 4.84339 11.1395 5.01028C11.2319 5.17716 11.268 5.36782 11.2426 5.55552C11.2158 5.75359 11.122 5.93756 10.9759 6.07881C10.8298 6.22006 10.6395 6.31069 10.4346 6.33659Z" fill="#242424"/>
<path d="M15.1221 24.4616C14.9279 24.4861 14.7307 24.4513 14.558 24.362C14.3854 24.2726 14.246 24.1333 14.1595 23.9635C14.073 23.7937 14.0436 23.6019 14.0755 23.4152C14.1075 23.2284 14.1991 23.056 14.3376 22.9222C14.476 22.7883 14.6544 22.6997 14.8476 22.6689C15.0408 22.638 15.2391 22.6664 15.4148 22.75C15.5904 22.8337 15.7346 22.9684 15.827 23.1353C15.9194 23.3022 15.9555 23.4928 15.9301 23.6805C15.9033 23.8786 15.8095 24.0626 15.6634 24.2038C15.5173 24.3451 15.327 24.4357 15.1221 24.4616Z" fill="#242424"/>
<path d="M15.1221 19.9303C14.9279 19.9549 14.7307 19.92 14.558 19.8307C14.3854 19.7414 14.246 19.602 14.1595 19.4322C14.073 19.2624 14.0436 19.0707 14.0755 18.8839C14.1075 18.6972 14.1991 18.5248 14.3376 18.3909C14.476 18.2571 14.6544 18.1685 14.8476 18.1376C15.0408 18.1068 15.2391 18.1351 15.4148 18.2188C15.5904 18.3024 15.7346 18.4371 15.827 18.604C15.9194 18.7709 15.9555 18.9616 15.9301 19.1493C15.9033 19.3473 15.8095 19.5313 15.6634 19.6726C15.5173 19.8138 15.327 19.9044 15.1221 19.9303Z" fill="#242424"/>
<path d="M15.1221 15.3991C14.9279 15.4236 14.7307 15.3888 14.558 15.2994C14.3854 15.2101 14.246 15.0708 14.1595 14.901C14.073 14.7312 14.0436 14.5394 14.0755 14.3527C14.1075 14.1659 14.1991 13.9935 14.3376 13.8597C14.476 13.7258 14.6544 13.6372 14.8476 13.6064C15.0408 13.5755 15.2391 13.6039 15.4148 13.6875C15.5904 13.7712 15.7346 13.9059 15.827 14.0728C15.9194 14.2397 15.9555 14.4303 15.9301 14.618C15.9033 14.8161 15.8095 15 15.6634 15.1413C15.5173 15.2825 15.327 15.3732 15.1221 15.3991Z" fill="#242424"/>
<path d="M15.6639 10.6101C16.0289 10.2573 16.0274 9.68381 15.6606 9.32924C15.2938 8.97466 14.7006 8.97323 14.3356 9.32603C13.9707 9.67884 13.9722 10.2523 14.339 10.6069C14.7058 10.9614 15.299 10.9629 15.6639 10.6101Z" fill="#242424"/>
<path d="M15.1221 6.33659C14.9279 6.36114 14.7307 6.3263 14.558 6.23696C14.3854 6.14762 14.246 6.00827 14.1595 5.83847C14.073 5.66867 14.0436 5.47693 14.0755 5.29018C14.1075 5.10342 14.1991 4.93102 14.3376 4.79717C14.476 4.66333 14.6544 4.57475 14.8476 4.54388C15.0408 4.513 15.2391 4.54138 15.4148 4.62503C15.5904 4.70868 15.7346 4.84339 15.827 5.01028C15.9194 5.17716 15.9555 5.36782 15.9301 5.55552C15.9033 5.75359 15.8095 5.93756 15.6634 6.07881C15.5173 6.22006 15.327 6.31069 15.1221 6.33659Z" fill="#242424"/>
<path d="M23.4375 22.6562C23.2521 22.6562 23.0708 22.7094 22.9167 22.809C22.7625 22.9086 22.6423 23.0501 22.5714 23.2157C22.5004 23.3813 22.4818 23.5635 22.518 23.7393C22.5542 23.9151 22.6435 24.0766 22.7746 24.2033C22.9057 24.3301 23.0727 24.4164 23.2546 24.4513C23.4365 24.4863 23.625 24.4684 23.7963 24.3998C23.9676 24.3312 24.114 24.215 24.217 24.066C24.32 23.917 24.375 23.7417 24.375 23.5625C24.375 23.3222 24.2762 23.0916 24.1004 22.9217C23.9246 22.7517 23.6861 22.6562 23.4375 22.6562Z" fill="#242424"/>
<path d="M23.4375 18.125C23.2521 18.125 23.0708 18.1782 22.9167 18.2777C22.7625 18.3773 22.6423 18.5189 22.5714 18.6844C22.5004 18.85 22.4818 19.0323 22.518 19.2081C22.5542 19.3839 22.6435 19.5453 22.7746 19.6721C22.9057 19.7988 23.0727 19.8851 23.2546 19.9201C23.4365 19.9551 23.625 19.9371 23.7963 19.8685C23.9676 19.7999 24.114 19.6838 24.217 19.5347C24.32 19.3857 24.375 19.2105 24.375 19.0313C24.375 18.7909 24.2762 18.5604 24.1004 18.3904C23.9246 18.2205 23.6861 18.125 23.4375 18.125Z" fill="#242424"/>
<path d="M23.4375 13.5938C23.2521 13.5938 23.0708 13.6469 22.9167 13.7465C22.7625 13.8461 22.6423 13.9876 22.5714 14.1532C22.5004 14.3188 22.4818 14.501 22.518 14.6768C22.5542 14.8526 22.6435 15.0141 22.7746 15.1408C22.9057 15.2676 23.0727 15.3539 23.2546 15.3888C23.4365 15.4238 23.625 15.4059 23.7963 15.3373C23.9676 15.2687 24.114 15.1525 24.217 15.0035C24.32 14.8545 24.375 14.6792 24.375 14.5C24.375 14.2597 24.2762 14.0291 24.1004 13.8592C23.9246 13.6892 23.6861 13.5938 23.4375 13.5938Z" fill="#242424"/>
<path d="M19.6875 22.6562C19.5021 22.6562 19.3208 22.7094 19.1667 22.809C19.0125 22.9086 18.8923 23.0501 18.8214 23.2157C18.7504 23.3813 18.7318 23.5635 18.768 23.7393C18.8042 23.9151 18.8935 24.0766 19.0246 24.2033C19.1557 24.3301 19.3227 24.4164 19.5046 24.4513C19.6865 24.4863 19.875 24.4684 20.0463 24.3998C20.2176 24.3312 20.364 24.215 20.467 24.066C20.57 23.917 20.625 23.7417 20.625 23.5625C20.625 23.3222 20.5262 23.0916 20.3504 22.9217C20.1746 22.7517 19.9361 22.6562 19.6875 22.6562Z" fill="#242424"/>
<path d="M19.6875 18.125C19.5021 18.125 19.3208 18.1782 19.1667 18.2777C19.0125 18.3773 18.8923 18.5189 18.8214 18.6844C18.7504 18.85 18.7318 19.0323 18.768 19.2081C18.8042 19.3839 18.8935 19.5453 19.0246 19.6721C19.1557 19.7988 19.3227 19.8851 19.5046 19.9201C19.6865 19.9551 19.875 19.9371 20.0463 19.8685C20.2176 19.7999 20.364 19.6838 20.467 19.5347C20.57 19.3857 20.625 19.2105 20.625 19.0313C20.625 18.7909 20.5262 18.5604 20.3504 18.3904C20.1746 18.2205 19.9361 18.125 19.6875 18.125Z" fill="#242424"/>
<path d="M19.6875 13.5938C19.5021 13.5938 19.3208 13.6469 19.1667 13.7465C19.0125 13.8461 18.8923 13.9876 18.8214 14.1532C18.7504 14.3188 18.7318 14.501 18.768 14.6768C18.8042 14.8526 18.8935 15.0141 19.0246 15.1408C19.1557 15.2676 19.3227 15.3539 19.5046 15.3888C19.6865 15.4238 19.875 15.4059 20.0463 15.3373C20.2176 15.2687 20.364 15.1525 20.467 15.0035C20.57 14.8545 20.625 14.6792 20.625 14.5C20.625 14.2597 20.5262 14.0291 20.3504 13.8592C20.1746 13.6892 19.9361 13.5938 19.6875 13.5938Z" fill="#242424"/>
</svg>
