<svg width="38" height="38" viewBox="0 0 38 38" fill="none" xmlns="http://www.w3.org/2000/svg">
<path d="M8.88086 20.4453V23.1113H15.5459V24.8779H13.291L13.2227 25.2461C12.7481 27.8206 11.525 30.1982 9.70508 32.0801L9.34082 32.4561L9.76758 32.7598C11.1057 33.7112 12.5565 34.4912 14.085 35.0879L13.4648 36.7412C11.6054 36.0225 9.85242 35.0529 8.25977 33.8516L7.98828 33.6465L7.7168 33.8516C6.13042 35.0523 4.38382 36.0222 2.53027 36.7412L1.91113 35.0879C3.44076 34.49 4.89277 33.7083 6.23145 32.7549L6.65332 32.4541L6.29688 32.0781C5.27842 31.0045 4.43729 29.7775 3.80371 28.4434H5.80664C6.32495 29.348 6.94998 30.1873 7.67188 30.9404L7.99316 31.2754L8.31738 30.9443C9.81756 29.4172 10.8785 27.5139 11.3877 25.4346L11.5244 24.8779H0.450195V23.1113H7.11523V20.4453H8.88086ZM28.877 23.1113V24.8779H21.7783V23.1113H28.877ZM36.875 17.7793V19.5459H21.7783V17.7793H36.875ZM36.875 12.4473V14.2129H21.7783V12.4473H36.875ZM8.69824 0.450195L14.4316 14.2129H12.5195L11.5244 11.8242L11.4092 11.5469H3.69922L3.58398 11.8242L2.58789 14.2129H0.674805L6.41016 0.450195H8.69824ZM7.13867 3.29297L4.69434 9.1582L4.43457 9.78125H10.6729L10.4131 9.1582L7.96875 3.29297L7.55371 2.2959L7.13867 3.29297Z" stroke="#242424" stroke-width="0.9"/>
</svg>
