<svg width="30" height="26" viewBox="0 0 30 26" fill="none" xmlns="http://www.w3.org/2000/svg">
<path d="M11.6414 16.3008C10.7789 15.4398 10.2539 14.2698 10.2539 12.9573C10.2539 10.3278 12.3719 8.20825 14.9999 8.20825C16.3004 8.20825 17.4974 8.73475 18.3449 9.59575" stroke="#5E6366" stroke-width="2.25" stroke-linecap="round" stroke-linejoin="round"/>
<path d="M19.6578 13.7988C19.3098 15.7338 17.7858 17.2608 15.8523 17.6118" stroke="#5E6366" stroke-width="2.25" stroke-linecap="round" stroke-linejoin="round"/>
<path d="M6.9825 20.959C4.602 19.09 2.586 16.36 1.125 12.9565C2.601 9.53795 4.6305 6.79295 7.026 4.90895C9.4065 3.02495 12.153 2.00195 15 2.00195C17.8635 2.00195 20.6085 3.03995 23.004 4.93745" stroke="#5E6366" stroke-width="2.25" stroke-linecap="round" stroke-linejoin="round"/>
<path d="M26.1719 8.23682C27.2039 9.60782 28.1114 11.1903 28.8749 12.9558C25.9244 19.7913 20.7104 23.9088 14.9999 23.9088C13.7054 23.9088 12.4289 23.6988 11.2019 23.2893" stroke="#5E6366" stroke-width="2.25" stroke-linecap="round" stroke-linejoin="round"/>
<path d="M26.8312 1.125L3.17017 24.786" stroke="#5E6366" stroke-width="2.25" stroke-linecap="round" stroke-linejoin="round"/>
</svg>
