<svg width="39" height="39" viewBox="0 0 39 39" fill="none" xmlns="http://www.w3.org/2000/svg">
<path d="M30.0256 34.3451C27.4088 31.4225 23.6067 29.5833 19.375 29.5833C15.1433 29.5833 11.3409 31.4225 8.72404 34.3451M19.375 37.75C9.22677 37.75 1 29.5232 1 19.375C1 9.22677 9.22677 1 19.375 1C29.5232 1 37.75 9.22677 37.75 19.375C37.75 29.5232 29.5232 37.75 19.375 37.75ZM19.375 23.4583C15.9923 23.4583 13.25 20.7161 13.25 17.3333C13.25 13.9506 15.9923 11.2083 19.375 11.2083C22.7577 11.2083 25.5 13.9506 25.5 17.3333C25.5 20.7161 22.7577 23.4583 19.375 23.4583Z" stroke="#FFFFFF" stroke-width="2" stroke-linecap="round" stroke-linejoin="round"/>
</svg>
