<svg width="35" height="35" viewBox="0 0 35 35" fill="none" xmlns="http://www.w3.org/2000/svg">
<path d="M24.8402 28.0705V4.85999C24.839 4.43072 24.6679 4.01939 24.3644 3.71585C24.0608 3.41232 23.6495 3.24124 23.2202 3.23999H4.86023C4.43097 3.24124 4.01964 3.41232 3.7161 3.71585C3.41256 4.01939 3.24148 4.43072 3.24023 4.85999V28.62C3.24237 29.3354 3.52752 30.0209 4.03341 30.5268C4.53929 31.0327 5.22481 31.3179 5.94023 31.32H28.0802" stroke="#242424" stroke-width="1.44" stroke-linejoin="round"/>
<path d="M28.0798 31.3201C27.2205 31.3201 26.3964 30.9788 25.7888 30.3712C25.1812 29.7635 24.8398 28.9394 24.8398 28.0801V8.64014H29.6998C30.1295 8.64014 30.5415 8.81081 30.8454 9.11462C31.1492 9.41843 31.3198 9.83049 31.3198 10.2601V28.0801C31.3198 28.9394 30.9785 29.7635 30.3709 30.3712C29.7633 30.9788 28.9391 31.3201 28.0798 31.3201Z" stroke="#242424" stroke-width="1.44" stroke-linejoin="round"/>
<path d="M16.86 14.7864V11.5801C16.86 10.864 16.5755 10.1773 16.0691 9.67094C15.5628 9.16459 14.876 8.88013 14.16 8.88013C13.4439 8.88013 12.7571 9.16459 12.2508 9.67094C11.7444 10.1773 11.46 10.864 11.46 11.5801V14.7864" stroke="#242424" stroke-linecap="round" stroke-linejoin="round"/>
<path d="M17.9398 14.7864H10.3798C9.48506 14.7864 8.75977 15.5117 8.75977 16.4064V22.3464C8.75977 23.2411 9.48506 23.9664 10.3798 23.9664H17.9398C18.8345 23.9664 19.5598 23.2411 19.5598 22.3464V16.4064C19.5598 15.5117 18.8345 14.7864 17.9398 14.7864Z" stroke="#242424" stroke-linecap="round" stroke-linejoin="round"/>
</svg>
