<svg width="22" height="24" viewBox="0 0 22 24" fill="none" xmlns="http://www.w3.org/2000/svg">
<path d="M17.5947 11.9702C17.5947 10.4169 16.3355 9.15771 14.7822 9.15771C13.2289 9.15771 11.9697 10.4169 11.9697 11.9702" stroke="#141B34" stroke-width="1.44" stroke-linecap="round"/>
<path d="M4.09473 1.84521V11.9702M6.90723 1.28271V6.90771M9.71973 0.720215V6.90771" stroke="#141B34" stroke-width="1.44" stroke-linecap="round" stroke-linejoin="round"/>
<path d="M1.84473 3.53271L4.09473 3.18115M19.8447 0.720215L12.5322 1.86279M1.84473 6.34521L4.09473 6.20459M19.8447 5.22021L12.5322 5.67725" stroke="#141B34" stroke-width="1.44" stroke-linecap="round" stroke-linejoin="round"/>
<path d="M2.8701 11.9702H18.8193C20.6226 11.9702 21.2832 12.3873 20.8333 14.2001C20.0396 17.3978 17.7926 18.1921 15.7165 20.2794C15.2118 20.7867 15.997 21.5363 15.9974 22.0943C15.9983 23.1449 14.9992 23.2202 14.2033 23.2202H7.48615C6.69029 23.2202 5.69119 23.1449 5.69202 22.0943C5.69245 21.5481 6.45408 20.7631 5.97299 20.2794C3.89681 18.1921 1.64981 17.3978 0.85617 14.2001C0.406252 12.3873 1.06686 11.9702 2.8701 11.9702Z" stroke="#141B34" stroke-width="1.44" stroke-linejoin="round"/>
</svg>
