<svg width="39" height="36" viewBox="0 0 39 36" fill="none" xmlns="http://www.w3.org/2000/svg">
<path d="M10.7949 9.5H10.1807C8.13413 9.5 7.11131 9.5 6.28137 9.87232C5.54979 10.2005 4.92654 10.7291 4.48255 11.3967C3.97886 12.1542 3.80953 13.1632 3.47308 15.1819L1.48975 27.0819L1.48895 27.0863C1.0354 29.8076 0.808494 31.169 1.20257 32.23C1.54856 33.1615 2.21115 33.9422 3.07312 34.4366C4.05536 35 5.43516 35 8.19678 35H30.3925C33.1541 35 34.5362 35 35.5184 34.4366C36.3804 33.9422 37.0414 33.1615 37.3874 32.23C37.7813 31.1694 37.5545 29.8087 37.1013 27.0895L37.0995 27.0819L35.1162 15.1819C34.7798 13.1632 34.6114 12.1542 34.1077 11.3967C33.6637 10.7291 33.0399 10.2005 32.3084 9.87232C31.4784 9.5 30.4563 9.5 28.4097 9.5H27.7949M10.7949 9.5H27.7949M10.7949 9.5C10.7949 4.80558 14.6005 1 19.2949 1C23.9893 1 27.7949 4.80558 27.7949 9.5" stroke="white" stroke-width="2" stroke-linecap="round" stroke-linejoin="round"/>
</svg>
