<svg width="31" height="35" viewBox="0 0 31 35" fill="none" xmlns="http://www.w3.org/2000/svg">
<path d="M20.7088 26.0833V27.875C20.7088 30.8435 18.3024 33.25 15.3338 33.25C12.3653 33.25 9.95882 30.8435 9.95882 27.875V26.0833M20.7088 26.0833H9.95882M20.7088 26.0833H27.1418C27.8272 26.0833 28.1715 26.0833 28.449 25.9897C28.9791 25.8109 29.3939 25.3947 29.5727 24.8646C29.6667 24.586 29.6667 24.2406 29.6667 23.5498C29.6667 23.2475 29.6663 23.0964 29.6427 22.9523C29.598 22.68 29.4923 22.4218 29.3313 22.1976C29.2463 22.0792 29.1382 21.971 28.9251 21.7579L28.2272 21.06C28.002 20.8348 27.8755 20.5294 27.8755 20.211V13.5417C27.8755 6.61508 22.2604 0.999983 15.3338 1C8.40726 1.00002 2.79215 6.61511 2.79215 13.5417V20.211C2.79215 20.5295 2.66538 20.8348 2.44021 21.06L1.74235 21.7579C1.5286 21.9716 1.4216 22.079 1.33643 22.1977C1.17545 22.4218 1.06883 22.6799 1.02414 22.9523C1.00049 23.0964 1.00049 23.2475 1.00049 23.5498C1.00049 24.2406 1.00049 24.5859 1.09447 24.8645C1.27327 25.3946 1.68992 25.8109 2.22001 25.9897C2.49753 26.0833 2.84056 26.0833 3.52594 26.0833H9.95882" stroke="#FFFFFF" stroke-width="2" stroke-linecap="round" stroke-linejoin="round"/>
</svg>
