<svg width="35" height="35" viewBox="0 0 35 35" fill="none" xmlns="http://www.w3.org/2000/svg">
<path d="M24.8402 28.0705V4.85999C24.839 4.43072 24.6679 4.01939 24.3644 3.71585C24.0608 3.41232 23.6495 3.24124 23.2202 3.23999H4.86023C4.43097 3.24124 4.01964 3.41232 3.7161 3.71585C3.41256 4.01939 3.24148 4.43072 3.24023 4.85999V28.62C3.24237 29.3354 3.52752 30.0209 4.03341 30.5268C4.53929 31.0327 5.22481 31.3179 5.94023 31.32H28.0802" stroke="#242424" stroke-width="1.44" stroke-linejoin="round"/>
<path d="M28.0798 31.3199C27.2205 31.3199 26.3964 30.9785 25.7888 30.3709C25.1812 29.7633 24.8398 28.9392 24.8398 28.0799V8.63989H29.6998C30.1295 8.63989 30.5415 8.81057 30.8454 9.11438C31.1492 9.41819 31.3198 9.83024 31.3198 10.2599V28.0799C31.3198 28.9392 30.9785 29.7633 30.3709 30.3709C29.7633 30.9785 28.9391 31.3199 28.0798 31.3199Z" stroke="#242424" stroke-width="1.44" stroke-linejoin="round"/>
<path d="M16.2002 8.63989H20.5202" stroke="#242424" stroke-width="1.44" stroke-linecap="round" stroke-linejoin="round"/>
<path d="M16.2002 12.96H20.5202" stroke="#242424" stroke-width="1.44" stroke-linecap="round" stroke-linejoin="round"/>
<path d="M7.56006 17.2798H20.5201" stroke="#242424" stroke-width="1.44" stroke-linecap="round" stroke-linejoin="round"/>
<path d="M7.56006 21.5999H20.5201" stroke="#242424" stroke-width="1.44" stroke-linecap="round" stroke-linejoin="round"/>
<path d="M7.56006 25.9199H20.5201" stroke="#242424" stroke-width="1.44" stroke-linecap="round" stroke-linejoin="round"/>
<path d="M11.88 14.0398H7.55998C7.27355 14.0398 6.99884 13.926 6.79631 13.7235C6.59377 13.521 6.47998 13.2462 6.47998 12.9598V8.63981C6.47998 8.35338 6.59377 8.07868 6.79631 7.87614C6.99884 7.6736 7.27355 7.55981 7.55998 7.55981H11.88C12.1664 7.55981 12.4411 7.6736 12.6437 7.87614C12.8462 8.07868 12.96 8.35338 12.96 8.63981V12.9598C12.96 13.2462 12.8462 13.521 12.6437 13.7235C12.4411 13.926 12.1664 14.0398 11.88 14.0398Z" fill="#242424"/>
</svg>
