<svg width="35" height="35" viewBox="0 0 35 35" fill="none" xmlns="http://www.w3.org/2000/svg">
<path d="M24.7082 9.85409C24.1467 9.29237 23.8179 8.53937 23.7876 7.74568C23.7573 6.95199 24.0278 6.17613 24.5448 5.57324C24.5876 5.5231 24.6099 5.45865 24.6071 5.3928C24.6043 5.32696 24.5768 5.26459 24.53 5.21819L21.5512 2.23604C21.502 2.18683 21.4352 2.15918 21.3656 2.15918C21.296 2.15918 21.2292 2.18683 21.18 2.23604L16.432 6.98399C16.2568 7.15913 16.1249 7.37267 16.0466 7.60769V7.60769C15.9686 7.84325 15.8368 8.0574 15.6616 8.23315C15.4865 8.4089 15.2728 8.54142 15.0375 8.62019V8.62019C14.8023 8.69856 14.5886 8.8305 14.4131 9.00562L2.23678 21.1792C2.18756 21.2285 2.15991 21.2953 2.15991 21.3649C2.15991 21.4345 2.18756 21.5013 2.23678 21.5505L5.21555 24.5293C5.26194 24.5761 5.32432 24.6036 5.39016 24.6064C5.45601 24.6091 5.52046 24.5869 5.5706 24.5441C6.17335 24.0265 6.94939 23.7556 7.74335 23.7857C8.53732 23.8158 9.29061 24.1447 9.85243 24.7065C10.4142 25.2683 10.7431 26.0216 10.7732 26.8156C10.8033 27.6095 10.5325 28.3856 10.0148 28.9883C9.97203 29.0385 9.9498 29.1029 9.95255 29.1688C9.9553 29.2346 9.98284 29.297 10.0296 29.3434L13.0084 32.3221C13.0577 32.3714 13.1244 32.399 13.194 32.399C13.2637 32.399 13.3304 32.3714 13.3797 32.3221L25.5567 20.1458C25.7318 19.9704 25.8637 19.7566 25.9421 19.5214V19.5214C26.0201 19.2859 26.1519 19.0717 26.3271 18.896C26.5022 18.7202 26.7159 18.5877 26.9512 18.5089V18.5089C27.1862 18.4307 27.3998 18.2987 27.5749 18.1235L32.3229 13.3756C32.3721 13.3263 32.3997 13.2596 32.3997 13.1899C32.3997 13.1203 32.3721 13.0536 32.3229 13.0043L29.3441 10.0255C29.2977 9.97874 29.2353 9.9512 29.1695 9.94844C29.1036 9.94569 29.0392 9.96793 28.989 10.0107C28.387 10.5287 27.6116 10.8003 26.8179 10.7713C26.0243 10.7422 25.2708 10.4147 24.7082 9.85409V9.85409Z" stroke="#242424" stroke-width="1.632" stroke-miterlimit="10"/>
<path d="M16.9089 9.47989L15.7944 8.36548" stroke="#242424" stroke-width="1.632" stroke-miterlimit="10" stroke-linecap="round"/>
<path d="M19.8801 12.4498L19.137 11.7073" stroke="#242424" stroke-width="1.632" stroke-miterlimit="10" stroke-linecap="round"/>
<path d="M22.8516 15.4221L22.1091 14.679" stroke="#242424" stroke-width="1.632" stroke-miterlimit="10" stroke-linecap="round"/>
<path d="M26.1943 18.7653L25.0798 17.6509" stroke="#242424" stroke-width="1.632" stroke-miterlimit="10" stroke-linecap="round"/>
</svg>
