<svg width="28" height="34" viewBox="0 0 28 34" fill="none" xmlns="http://www.w3.org/2000/svg">
<path d="M26.5999 13.9999C26.5999 23.7999 13.9999 32.1999 13.9999 32.1999C13.9999 32.1999 1.3999 23.7999 1.3999 13.9999C1.3999 10.6582 2.7274 7.45331 5.09036 5.09036C7.45332 2.7274 10.6582 1.3999 13.9999 1.3999C17.3416 1.3999 20.5465 2.7274 22.9094 5.09036C25.2724 7.45331 26.5999 10.6582 26.5999 13.9999Z" stroke="#1E1E1E" stroke-width="2.8" stroke-linecap="round" stroke-linejoin="round"/>
<path d="M13.9999 18.1999C16.3195 18.1999 18.1999 16.3195 18.1999 13.9999C18.1999 11.6803 16.3195 9.7999 13.9999 9.7999C11.6803 9.7999 9.7999 11.6803 9.7999 13.9999C9.7999 16.3195 11.6803 18.1999 13.9999 18.1999Z" stroke="#1E1E1E" stroke-width="2.8" stroke-linecap="round" stroke-linejoin="round"/>
</svg>
