<svg width="24" height="24" viewBox="0 0 24 24" fill="none" xmlns="http://www.w3.org/2000/svg">
<path d="M16.1546 9.1972C16.0926 9.13471 16.0189 9.08512 15.9377 9.05127C15.8564 9.01743 15.7693 9 15.6813 9C15.5933 9 15.5061 9.01743 15.4249 9.05127C15.3437 9.08512 15.2699 9.13471 15.2079 9.1972L10.2413 14.1705L8.15462 12.0772C8.09027 12.015 8.01431 11.9662 7.93107 11.9334C7.84783 11.9006 7.75895 11.8845 7.6695 11.886C7.58004 11.8876 7.49177 11.9067 7.40972 11.9424C7.32767 11.978 7.25344 12.0295 7.19128 12.0939C7.12912 12.1582 7.08025 12.2342 7.04744 12.3174C7.01464 12.4006 6.99855 12.4895 7.0001 12.579C7.00165 12.6684 7.0208 12.7567 7.05646 12.8388C7.09213 12.9208 7.1436 12.995 7.20795 13.0572L9.76795 15.6172C9.82992 15.6797 9.90366 15.7293 9.9849 15.7631C10.0661 15.797 10.1533 15.8144 10.2413 15.8144C10.3293 15.8144 10.4164 15.797 10.4977 15.7631C10.5789 15.7293 10.6526 15.6797 10.7146 15.6172L16.1546 10.1772C16.2223 10.1148 16.2763 10.039 16.3132 9.95467C16.3502 9.87034 16.3692 9.77927 16.3692 9.6872C16.3692 9.59513 16.3502 9.50406 16.3132 9.41973C16.2763 9.33539 16.2223 9.25963 16.1546 9.1972Z" fill="#32936F"/>
<path d="M12 22C17.5228 22 22 17.5228 22 12C22 6.47715 17.5228 2 12 2C6.47715 2 2 6.47715 2 12C2 17.5228 6.47715 22 12 22Z" stroke="#32936F" stroke-linecap="round" stroke-linejoin="round"/>
</svg>
